<svg width="24" height="24" viewBox="0 0 24 24" fill="none" xmlns="http://www.w3.org/2000/svg">
<path d="M16.8 8.26199C17.3954 8.26199 17.878 7.77935 17.878 7.18399C17.878 6.58862 17.3954 6.10599 16.8 6.10599C16.2046 6.10599 15.722 6.58862 15.722 7.18399C15.722 7.77935 16.2046 8.26199 16.8 8.26199Z" fill="black"/>
<path fill-rule="evenodd" clip-rule="evenodd" d="M11.993 7.354C10.7666 7.354 9.59051 7.84117 8.72334 8.70834C7.85617 9.57551 7.369 10.7516 7.369 11.978C7.369 13.2044 7.85617 14.3805 8.72334 15.2477C9.59051 16.1148 10.7666 16.602 11.993 16.602C13.2194 16.602 14.3955 16.1148 15.2627 15.2477C16.1298 14.3805 16.617 13.2044 16.617 11.978C16.617 10.7516 16.1298 9.57551 15.2627 8.70834C14.3955 7.84117 13.2194 7.354 11.993 7.354ZM11.993 14.981C11.1963 14.981 10.4322 14.6645 9.86885 14.1012C9.3055 13.5378 8.989 12.7737 8.989 11.977C8.989 11.1803 9.3055 10.4162 9.86885 9.85286C10.4322 9.2895 11.1963 8.973 11.993 8.973C12.7897 8.973 13.5538 9.2895 14.1172 9.85286C14.6805 10.4162 14.997 11.1803 14.997 11.977C14.997 12.7737 14.6805 13.5378 14.1172 14.1012C13.5538 14.6645 12.7897 14.981 11.993 14.981Z" fill="black"/>
<path fill-rule="evenodd" clip-rule="evenodd" d="M19.4883 4.49405C19.9417 4.94728 20.2955 5.49017 20.527 6.08799C20.7939 6.79724 20.9364 7.54727 20.948 8.30499C21.004 9.26199 21.004 9.57199 21.004 12.015C21.004 14.458 20.991 14.763 20.948 15.725C20.933 16.473 20.792 17.211 20.529 17.911C20.2972 18.5087 19.9433 19.0516 19.49 19.505C19.0366 19.9583 18.4938 20.3122 17.896 20.544C17.1962 20.8061 16.4571 20.9478 15.71 20.963C14.755 21.018 14.442 21.018 12 21.018C9.558 21.018 9.253 21.005 8.29 20.963C7.54137 20.9384 6.80244 20.7862 6.105 20.513C5.50707 20.2816 4.96398 19.928 4.51044 19.4748C4.0569 19.0216 3.70288 18.4788 3.471 17.881C3.208 17.18 3.067 16.442 3.052 15.694C2.996 14.737 2.996 14.426 2.996 11.984C2.996 9.54099 3.009 9.23599 3.052 8.27399C3.06662 7.52683 3.20831 6.78761 3.471 6.08799C3.70223 5.49002 4.05591 4.94698 4.50934 4.49372C4.96277 4.04046 5.50594 3.687 6.104 3.45599C6.80276 3.1926 7.54139 3.05055 8.288 3.03599C9.243 2.98199 9.556 2.98199 11.998 2.98199C14.44 2.98199 14.745 2.99399 15.708 3.03599C16.4552 3.05134 17.1943 3.19335 17.894 3.45599C18.4919 3.68727 19.0349 4.04083 19.4883 4.49405ZM18.998 17.308C19.1974 16.7672 19.3026 16.1963 19.309 15.62V15.621H19.32C19.363 14.665 19.363 14.403 19.363 11.967C19.363 9.52999 19.352 9.26299 19.309 8.31199C19.2997 7.74215 19.1946 7.17794 18.998 6.64299C18.8477 6.25407 18.6178 5.90085 18.323 5.60602C18.0281 5.3112 17.6749 5.08127 17.286 4.93099C16.7514 4.73207 16.1864 4.62686 15.616 4.61999C14.649 4.56499 14.399 4.56499 11.962 4.56499C9.525 4.56499 9.258 4.57699 8.307 4.61999C7.73703 4.62796 7.17259 4.73313 6.638 4.93099C5.849 5.23299 5.224 5.85399 4.919 6.64299C4.71966 7.18341 4.61447 7.75402 4.608 8.32999C4.555 9.29899 4.555 9.54799 4.555 11.9849C4.555 14.4209 4.565 14.689 4.608 15.639C4.61731 16.2088 4.72245 16.773 4.919 17.308C5.06984 17.6976 5.30078 18.0512 5.59689 18.346C5.893 18.6407 6.24769 18.87 6.638 19.019C7.17233 19.2178 7.73693 19.323 8.307 19.33C9.275 19.385 9.524 19.385 11.962 19.385C14.398 19.385 14.666 19.374 15.616 19.33C16.1864 19.3226 16.7512 19.2174 17.286 19.019C17.675 18.869 18.0282 18.6393 18.3231 18.3447C18.6179 18.05 18.8478 17.6969 18.998 17.308Z" fill="black"/>
</svg>
