<svg width="24" height="24" viewBox="0 0 24 24" fill="none" xmlns="http://www.w3.org/2000/svg">
<path fill-rule="evenodd" clip-rule="evenodd" d="M16 10.0001C16 12.2061 14.206 14.0001 12 14.0001C9.794 14.0001 8 12.2061 8 10.0001C8 7.79406 9.794 6.00006 12 6.00006C14.206 6.00006 16 7.79406 16 10.0001ZM14 10.0001C14 8.89706 13.103 8.00006 12 8.00006C10.897 8.00006 10 8.89706 10 10.0001C10 11.1031 10.897 12.0001 12 12.0001C13.103 12.0001 14 11.1031 14 10.0001Z" fill="black"/>
<path fill-rule="evenodd" clip-rule="evenodd" d="M12 21.9999C11.792 21.9999 11.5892 21.9349 11.42 21.8141C11.116 21.5991 3.971 16.4401 4 9.99506C4 5.58906 7.589 2.00006 12 2.00006C16.411 2.00006 20 5.58906 20 10.0001C20.029 16.4401 12.884 21.5991 12.58 21.8141C12.4107 21.9349 12.208 21.9999 12 21.9999ZM18 10.0051C18 6.69106 15.309 4.00006 12 4.00006C8.691 4.00006 6 6.69106 6 10.0001C5.979 14.4411 10.389 18.4271 12 19.7351C13.612 18.4281 18.021 14.4431 18 10.0051Z" fill="black"/>
</svg>
