<svg width="24" height="24" viewBox="0 0 24 24" fill="none" xmlns="http://www.w3.org/2000/svg">
<path fill-rule="evenodd" clip-rule="evenodd" d="M15.9 5.60025L18.9 2.60025L20.3003 4.10025L3.00001 21.4005L1.59976 19.9005L4.99951 16.5008C2.79976 14.601 1.99951 12.3007 1.99951 12.3007L1.89976 12.0007L2.10001 11.7008C2.10001 11.601 4.40026 5.001 12 5.001C13.5 5.001 14.7 5.30025 15.9 5.60025ZM12 9H12.5003L14.3003 7.29975C13.6005 7.0995 12.8003 6.99975 12 6.99975C6.69976 6.99975 4.59976 10.8 4.10026 12C4.30051 12.6 5.00026 14.0003 6.40051 15.0998L9.00076 12.4995V11.9993C9.00076 10.299 10.3005 8.99925 12.0008 8.99925L12 9Z" fill="black"/>
<path d="M21.9 11.7C21.9 11.7 21.0998 9.39975 18.9 7.5L17.4998 8.90025C18.9 10.0005 19.5998 11.4 19.8998 12C19.3995 13.2 17.2995 17.0002 12 17.0002C11.1998 17.0002 10.4003 16.9005 9.69976 16.7003L8.10001 18.3C9.20026 18.6997 10.5 18.9998 12 18.9998C19.5998 18.9998 21.9 12.3997 21.9 12.3L21.9998 12L21.9 11.7Z" fill="black"/>
<path d="M15 12C15 13.5998 13.5998 15 12 15H11.4998L15 11.4998V12Z" fill="black"/>
</svg>
