<?xml version="1.0" encoding="utf-8"?>
<!-- Generator: Adobe Illustrator 25.4.1, SVG Export Plug-In . SVG Version: 6.00 Build 0)  -->
<svg version="1.1" id="Calque_1" xmlns="http://www.w3.org/2000/svg" xmlns:xlink="http://www.w3.org/1999/xlink" x="0px" y="0px"
	 viewBox="0 0 29.7 32" style="enable-background:new 0 0 29.7 32;" xml:space="preserve">
<style type="text/css">
	.st0{fill:#FFFFFF;}
	.st1{fill:#142F43;}
	.st2{fill-rule:evenodd;clip-rule:evenodd;fill:#142F43;}
</style>
<path class="st0" d="M13.9,0.2L1,7.3C0.4,7.6,0,8.3,0,9v14c0,0.6,0.4,1.4,1,1.6l12.9,7.1c0.5,0.3,1.4,0.3,2,0l12.9-7.1
	c0.5-0.3,1-1,1-1.6V9c0-0.6-0.4-1.4-1-1.6l-13-7.2c-0.3-0.1-0.6-0.2-1-0.2C14.5,0,14.2,0.1,13.9,0.2z"/>
<path class="st1" d="M21,15l-1.2-1.4V15h-0.9v-4.4h0.9v2.7l1.1-1.3H22l-1.3,1.5l1.4,1.6H21V15z"/>
<path class="st2" d="M10.3,12.7c0.2,0.1,0.4,0.2,0.6,0.4c0.1,0.2,0.2,0.4,0.2,0.7c0,0.4-0.1,0.6-0.4,0.9c-0.3,0.2-0.6,0.3-1.1,0.3
	h-2v-4.3h2c0.4,0,0.8,0.1,1.1,0.3s0.4,0.5,0.4,0.8c0,0.2-0.1,0.4-0.2,0.6C10.7,12.5,10.5,12.7,10.3,12.7z M8.5,12.4h0.9
	c0.2,0,0.4,0,0.5-0.1s0.2-0.2,0.2-0.4s-0.1-0.3-0.2-0.4c-0.1-0.1-0.3-0.1-0.5-0.1H8.5V12.4z M9.5,14.2c0.3,0,0.4,0,0.5-0.1
	s0.2-0.2,0.2-0.4s-0.1-0.3-0.2-0.4c-0.1-0.1-0.3-0.1-0.5-0.1h-1v1.1h1V14.2z"/>
<path class="st2" d="M13.2,15c-0.3,0-0.6-0.1-0.9-0.2c-0.2-0.1-0.4-0.3-0.6-0.6c-0.1-0.2-0.2-0.5-0.2-0.8s0.1-0.6,0.2-0.8
	c0.1-0.2,0.3-0.4,0.6-0.6c0.2-0.1,0.5-0.2,0.9-0.2c0.3,0,0.6,0.1,0.8,0.2c0.2,0.1,0.4,0.3,0.6,0.6c0.1,0.2,0.2,0.5,0.2,0.8
	s-0.1,0.6-0.2,0.8c-0.1,0.2-0.3,0.4-0.6,0.6C13.8,14.9,13.5,15,13.2,15z M13.2,14.3c0.2,0,0.4-0.1,0.5-0.2c0.1-0.1,0.2-0.4,0.2-0.7
	s-0.1-0.5-0.2-0.7c-0.1-0.2-0.3-0.2-0.5-0.2s-0.4,0.1-0.5,0.2c-0.1,0.1-0.2,0.4-0.2,0.7C12.4,14,12.7,14.3,13.2,14.3z"/>
<path class="st2" d="M15.9,14.8c0.2,0.1,0.5,0.2,0.9,0.2c0.3,0,0.6-0.1,0.8-0.2c0.2-0.1,0.4-0.3,0.6-0.6c0.1-0.2,0.2-0.5,0.2-0.8
	s-0.1-0.6-0.2-0.8s-0.3-0.4-0.6-0.6c-0.2-0.1-0.5-0.2-0.8-0.2s-0.6,0.1-0.9,0.2c-0.2,0.1-0.4,0.3-0.6,0.6c-0.1,0.2-0.2,0.5-0.2,0.8
	s0.1,0.6,0.2,0.8C15.5,14.5,15.7,14.7,15.9,14.8z M17.3,14.1c-0.1,0.1-0.3,0.2-0.5,0.2c-0.5,0-0.7-0.3-0.7-0.9
	c0-0.3,0.1-0.5,0.2-0.7s0.3-0.2,0.5-0.2s0.4,0.1,0.5,0.2c0.1,0.1,0.2,0.4,0.2,0.7C17.5,13.7,17.4,13.9,17.3,14.1z"/>
<path class="st2" d="M25,21.4h-0.9V21c-0.1,0.2-0.2,0.3-0.4,0.4c-0.2,0.1-0.4,0.1-0.6,0.1c-0.3,0-0.5-0.1-0.7-0.2S22,21,21.9,20.7
	c-0.1-0.2-0.2-0.5-0.2-0.8s0.1-0.6,0.2-0.8c0.1-0.2,0.3-0.4,0.5-0.6c0.2-0.1,0.4-0.2,0.7-0.2c0.2,0,0.4,0,0.6,0.1s0.3,0.2,0.4,0.4
	V17H25V21.4z M23.4,20.8c0.2,0,0.4-0.1,0.5-0.2c0.1-0.2,0.2-0.4,0.2-0.7c0-0.3-0.1-0.5-0.2-0.7S23.6,19,23.4,19s-0.4,0.1-0.5,0.2
	c-0.1,0.2-0.2,0.4-0.2,0.6c0,0.3,0.1,0.5,0.2,0.7C23,20.7,23.2,20.8,23.4,20.8z"/>
<path class="st2" d="M13.7,19.6c-0.1-0.2-0.3-0.3-0.6-0.4c0.2-0.1,0.4-0.2,0.5-0.4c0.1-0.2,0.2-0.4,0.2-0.6c0-0.3-0.1-0.6-0.4-0.8
	c-0.3-0.2-0.6-0.3-1.1-0.3h-2v4.3h2c0.5,0,0.8-0.1,1.1-0.3c0.3-0.2,0.4-0.5,0.4-0.9C13.9,20,13.8,19.8,13.7,19.6z M12.2,18.9h-0.9
	v-1h0.9c0.2,0,0.4,0,0.5,0.1s0.2,0.2,0.2,0.4c0,0.2-0.1,0.3-0.2,0.4C12.6,18.8,12.4,18.9,12.2,18.9z M12.9,20.6
	c-0.1,0.1-0.3,0.1-0.5,0.1h-1v-1.1h1c0.3,0,0.4,0,0.5,0.1C13,19.8,13,20,13,20.2C13,20.3,13,20.5,12.9,20.6z"/>
<path class="st2" d="M7.9,21.4v-3H7v0.4c-0.1-0.2-0.2-0.3-0.4-0.4c-0.2-0.1-0.4-0.1-0.6-0.1c-0.3,0-0.5,0.1-0.7,0.2
	s-0.4,0.3-0.5,0.6c-0.1,0.2-0.2,0.5-0.2,0.8s0.1,0.6,0.2,0.8C5,21,5.2,21.1,5.4,21.3c0.2,0.1,0.4,0.2,0.7,0.2c0.2,0,0.4,0,0.6-0.1
	C6.8,21.2,6.9,21.1,7,21v0.5h0.9V21.4z M6.8,20.5c-0.1,0.2-0.3,0.2-0.5,0.2s-0.4-0.1-0.5-0.2c-0.1-0.2-0.2-0.4-0.2-0.7
	s0.1-0.5,0.2-0.7S6.1,19,6.3,19c0.2,0,0.4,0.1,0.5,0.2C7,19.4,7,19.6,7,19.9S7,20.4,6.8,20.5z"/>
<path class="st2" d="M17.6,18.4v3h-0.9V21c-0.1,0.2-0.2,0.3-0.4,0.4c-0.2,0.1-0.4,0.1-0.6,0.1c-0.3,0-0.5-0.1-0.7-0.2
	s-0.4-0.3-0.5-0.5s-0.2-0.5-0.2-0.8s0.1-0.6,0.2-0.8c0.1-0.2,0.3-0.4,0.5-0.6c0.2-0.1,0.4-0.2,0.7-0.2c0.2,0,0.4,0,0.6,0.1
	s0.3,0.2,0.4,0.4v-0.4h0.9V18.4z M16,20.8c0.2,0,0.4-0.1,0.5-0.2c0.1-0.2,0.2-0.4,0.2-0.7s-0.1-0.5-0.2-0.7C16.4,19.1,16.2,19,16,19
	c-0.2,0-0.4,0.1-0.5,0.2c-0.1,0.2-0.2,0.4-0.2,0.7s0.1,0.5,0.2,0.7C15.6,20.7,15.7,20.8,16,20.8z"/>
<path class="st1" d="M21.2,19.6c0-0.9-0.4-1.3-1.1-1.3c-0.2,0-0.4,0-0.6,0.1s-0.3,0.2-0.4,0.4L19,18.3h-0.9c0,0.3,0,0.5,0,0.9v2.2
	H19v-1.7c0-0.2,0.1-0.4,0.2-0.5s0.3-0.2,0.5-0.2s0.3,0.1,0.4,0.2s0.1,0.2,0.1,0.5v1.8h0.9v-1.9H21.2z"/>
<path class="st1" d="M25,21.9H10.4v0.3H25V21.9z"/>
</svg>
